<svg width="140" height="134" viewBox="0 0 140 134" fill="none" xmlns="http://www.w3.org/2000/svg">
<mask id="mask0_384_422" style="mask-type:alpha" maskUnits="userSpaceOnUse" x="4" y="0" width="132" height="126">
<rect x="4.54834" y="0.711914" width="131.296" height="125.14" rx="12" fill="#79BEAC"/>
</mask>
<g mask="url(#mask0_384_422)">
<g filter="url(#filter0_d_384_422)">
<rect x="4.54834" y="0.711914" width="131.296" height="125.14" rx="12" fill="#C6482E"/>
</g>
<mask id="mask1_384_422" style="mask-type:luminance" maskUnits="userSpaceOnUse" x="-3" y="0" width="146" height="146">
<path d="M86.3858 145.348H54.0064C23.0075 145.348 -2.12207 120.219 -2.12207 89.2196V56.8404C-2.12207 25.8416 23.0075 0.711914 54.0064 0.711914H86.3858C117.385 0.711914 142.514 25.8414 142.514 56.8404V89.2198C142.514 120.219 117.385 145.348 86.3858 145.348Z" fill="white"/>
</mask>
<g mask="url(#mask1_384_422)">
<path d="M112.519 108.527C115.86 106.495 115.349 101.491 111.663 100.185C99.5442 95.8917 103.264 96.1169 91.5161 90.8953C89.1694 89.8524 84.9194 74.2077 84.4914 70.8213L64.0848 70.7C63.6166 74.081 59.181 89.674 56.8219 90.6889C45.1693 95.7028 35.7277 100.284 23.7251 104.39C19.9453 105.683 19.4558 110.829 22.9233 112.813L76.6048 144.888L112.519 108.527Z" fill="#F5AC89"/>
<path d="M58.8395 46.9768C58.7974 47.1429 58.7568 47.3076 58.7163 47.4719C58.7311 47.2366 58.7467 47.0011 58.7627 46.7657C58.7882 46.836 58.8137 46.9064 58.8395 46.9768Z" fill="#342A33"/>
<path d="M51.791 67.6085C55.2799 66.8748 57.5134 63.4517 56.7797 59.9629C56.046 56.474 52.6229 54.2405 49.134 54.9742C45.6452 55.7079 43.4117 59.131 44.1454 62.6199C44.8791 66.1087 48.3022 68.3422 51.791 67.6085Z" fill="#F5AC89"/>
<path d="M90.3045 55.3939C93.1659 53.2673 93.7616 49.2237 91.6349 46.3623C89.5083 43.5009 85.4647 42.9053 82.6034 45.0319C79.742 47.1585 79.1463 51.2021 81.2729 54.0634C83.3995 56.9248 87.4431 57.5205 90.3045 55.3939Z" fill="#F5AC89"/>
<path d="M90.0211 57.6493C90.0211 57.6493 90.5595 82.2719 77.7181 86.2276C64.8462 90.1037 51.5971 69.3193 51.5971 69.3193C50.3053 59.2676 44.1765 50.6848 42.8848 40.6332C42.9913 40.6477 50.2665 28.7918 59.2022 25.9993C68.1677 23.357 81.1501 29.0643 81.2419 28.9836C85.7582 38.056 85.5048 48.5769 90.0211 57.6493Z" fill="#F5AC89"/>
<path d="M77.9507 86.3792C83.2078 84.6717 86.9989 79.1513 88.9138 70.415C90.3532 63.8488 90.237 57.7061 90.2358 57.6447L90.2347 57.5966L90.2134 57.5537C89.2122 55.5429 88.3574 53.2704 87.5993 50.6064L87.1794 50.6834C87.187 50.7742 88.6052 61.6474 88.4218 66.0641C84.9299 64.6574 81.1684 64.6432 76.9339 66.0186C72.9816 67.3023 67.5483 68.2912 63.8525 70.5037C61.8531 71.7003 61.3809 73.4054 59.522 74.3516C55.7833 72.5794 52.9784 68.2282 51.0148 65.2204L50.627 65.3896C50.9731 66.7789 51.2208 68.0733 51.3846 69.3466L51.3906 69.3942L51.4165 69.4347C51.4497 69.4869 54.7991 74.7066 59.6826 79.3821C66.181 85.6033 72.4389 88.0416 77.7805 86.4332C77.8384 86.4149 77.8944 86.3973 77.9507 86.3792Z" fill="#929292"/>
<path d="M75.989 5.91833C75.989 5.91833 75.0892 14.9762 66.3796 16.3755C61.6699 15.2197 54.5085 15.2271 45.1783 20.3461C45.1235 20.3763 45.0682 20.4064 45.0132 20.437C27.0769 30.3666 44.005 61.2832 44.005 61.2832C44.005 58.8888 45.5703 56.6533 46.8134 56.6533C49.8607 59.7274 51.8369 64.0082 51.8369 64.0082L47.991 54.1347L45.7666 42.4892C45.7666 42.4892 71.8133 39.8591 77.5793 31.6224L82.459 38.6947L86.8934 48.8082C86.8934 48.8082 85.9996 29.3705 78.8838 22.107C79.1548 17.0536 79.0218 9.18375 75.989 5.91833Z" fill="#929292"/>
<path d="M113.005 150.593C112.183 155.493 111.373 161.57 110.632 167.854H35.2456C32.566 153.14 29.9538 139.588 29.7302 138.429L29.7195 138.375L29.6955 138.325C26.2075 131.083 17.1568 111.704 17.1636 109.039C17.164 108.889 17.4227 108.001 22.492 105.225C25.4278 103.618 29.5244 101.62 34.6678 99.2885C41.9504 95.9868 49.3128 92.9345 51.6479 91.975C51.497 93.3951 52.0625 95.295 54.1318 96.9391C59.8914 101.515 66.6107 103.934 73.5639 103.934C80.4557 103.934 87.6753 101.558 94.4412 97.0625C95.9506 96.0599 97.2161 94.0868 96.9931 92.1154C102.414 94.4963 108.023 97.4787 113.872 100.139C113.946 108.493 113.65 116.666 113.872 125.017C114.1 133.556 113.015 142.051 113.005 150.593Z" fill="#E6E6E6"/>
<path d="M73.9644 103.503C73.9644 103.503 90.7325 103.349 90.7672 89.7941C90.7672 89.7941 95.9738 89.4777 97.8976 92.2158L87.3876 123.969L83.6259 109.301L73.9644 103.503Z" fill="#F0F0F0"/>
<path d="M74.0238 103.503C74.0238 103.503 57.2567 103.263 57.2916 89.7083C57.2916 89.7083 52.6285 89.1767 50.6908 91.905L50.6641 97.603L61.3307 123.902L64.3329 109.251L74.0238 103.503Z" fill="#F0F0F0"/>
<path d="M64.9307 167.854H34.1915C31.7148 152.539 29.3091 138.511 29.3091 138.511C29.3091 138.511 16.7262 112.385 16.7349 109.037C16.7435 105.689 51.022 91.5002 51.022 91.5002C50.5442 92.8189 57.9822 138.64 64.9307 167.854Z" fill="#C69C6D"/>
<path d="M115.221 125.075C115.456 133.882 115.67 142.692 115.645 151.503C115.641 152.963 115.627 154.423 115.609 155.883C115.081 159.587 114.501 163.673 113.912 167.854H82.459C89.766 138.651 97.7641 92.8597 97.2931 91.5388C97.2931 91.5388 109.566 95.9578 118.269 99.97C119.264 106.936 114.993 116.526 115.221 125.075Z" fill="#C69C6D"/>
<path d="M3.70508 167.854C5.5385 151.623 8.29675 134.538 11.3172 121.079C12.1227 117.489 13.3418 113.723 15.1972 110.546C17.0524 107.37 20.9373 105.055 24.4273 106.217L40.7293 137.33C40.7293 137.33 37.8555 150.278 34.5139 167.853L3.70508 167.854Z" fill="#C69C6D"/>
<path d="M120.417 167.854C112.098 150.499 106.498 137.087 106.498 137.087L111.564 99.9612C114.654 97.9652 118.993 99.2386 121.582 101.853C124.17 104.466 126.29 107.81 127.965 111.085C135.688 126.189 146.974 148.519 155.425 167.854H120.417Z" fill="#C69C6D"/>
</g>
</g>
<defs>
<filter id="filter0_d_384_422" x="0.54834" y="0.711914" width="139.295" height="133.14" filterUnits="userSpaceOnUse" color-interpolation-filters="sRGB">
<feFlood flood-opacity="0" result="BackgroundImageFix"/>
<feColorMatrix in="SourceAlpha" type="matrix" values="0 0 0 0 0 0 0 0 0 0 0 0 0 0 0 0 0 0 127 0" result="hardAlpha"/>
<feOffset dy="4"/>
<feGaussianBlur stdDeviation="2"/>
<feComposite in2="hardAlpha" operator="out"/>
<feColorMatrix type="matrix" values="0 0 0 0 0 0 0 0 0 0 0 0 0 0 0 0 0 0 0.25 0"/>
<feBlend mode="normal" in2="BackgroundImageFix" result="effect1_dropShadow_384_422"/>
<feBlend mode="normal" in="SourceGraphic" in2="effect1_dropShadow_384_422" result="shape"/>
</filter>
</defs>
</svg>
