<svg width="25" height="25" viewBox="0 0 25 25" fill="none" xmlns="http://www.w3.org/2000/svg">
<g clip-path="url(#clip0_384_734)">
<path d="M10.3929 4.45225C10.8189 2.69625 13.3169 2.69625 13.7429 4.45225C13.8068 4.71605 13.9321 4.96103 14.1086 5.16725C14.2851 5.37347 14.5078 5.53511 14.7585 5.639C15.0093 5.74289 15.281 5.7861 15.5517 5.76512C15.8223 5.74414 16.0841 5.65956 16.3159 5.51825C17.8589 4.57825 19.6259 6.34425 18.6859 7.88825C18.5448 8.11991 18.4603 8.38159 18.4394 8.65203C18.4185 8.92246 18.4616 9.19402 18.5654 9.44463C18.6692 9.69524 18.8306 9.91783 19.0366 10.0943C19.2426 10.2708 19.4873 10.3962 19.7509 10.4603C21.5069 10.8863 21.5069 13.3843 19.7509 13.8103C19.4871 13.8742 19.2421 13.9995 19.0359 14.176C18.8297 14.3525 18.668 14.5751 18.5641 14.8259C18.4602 15.0767 18.417 15.3484 18.438 15.619C18.459 15.8897 18.5436 16.1515 18.6849 16.3833C19.6249 17.9263 17.8589 19.6933 16.3149 18.7533C16.0832 18.6122 15.8215 18.5277 15.5511 18.5068C15.2807 18.4858 15.0091 18.529 14.7585 18.6328C14.5079 18.7366 14.2853 18.898 14.1088 19.104C13.9323 19.31 13.807 19.5547 13.7429 19.8183C13.3169 21.5743 10.8189 21.5743 10.3929 19.8183C10.329 19.5545 10.2037 19.3095 10.0272 19.1033C9.85067 18.897 9.62798 18.7354 9.37722 18.6315C9.12646 18.5276 8.85471 18.4844 8.58409 18.5054C8.31347 18.5264 8.05162 18.611 7.81987 18.7523C6.27687 19.6923 4.50987 17.9263 5.44987 16.3823C5.59097 16.1506 5.67542 15.8889 5.69635 15.6185C5.71729 15.348 5.67411 15.0765 5.57034 14.8259C5.46657 14.5753 5.30513 14.3527 5.09914 14.1762C4.89316 13.9997 4.64843 13.8743 4.38487 13.8103C2.62887 13.3843 2.62887 10.8863 4.38487 10.4603C4.64867 10.3963 4.89365 10.271 5.09987 10.0945C5.30609 9.91805 5.46773 9.69536 5.57162 9.4446C5.67551 9.19384 5.71872 8.92209 5.69774 8.65147C5.67676 8.38085 5.59217 8.11901 5.45087 7.88725C4.51087 6.34425 6.27687 4.57725 7.82087 5.51725C8.82087 6.12525 10.1169 5.58725 10.3929 4.45225Z" stroke="black" stroke-width="2" stroke-linecap="round" stroke-linejoin="round"/>
<path d="M9.06787 12.1353C9.06787 12.9309 9.38394 13.694 9.94655 14.2566C10.5092 14.8192 11.2722 15.1353 12.0679 15.1353C12.8635 15.1353 13.6266 14.8192 14.1892 14.2566C14.7518 13.694 15.0679 12.9309 15.0679 12.1353C15.0679 11.3396 14.7518 10.5765 14.1892 10.0139C13.6266 9.45132 12.8635 9.13525 12.0679 9.13525C11.2722 9.13525 10.5092 9.45132 9.94655 10.0139C9.38394 10.5765 9.06787 11.3396 9.06787 12.1353Z" stroke="black" stroke-width="2" stroke-linecap="round" stroke-linejoin="round"/>
</g>
<defs>
<clipPath id="clip0_384_734">
<rect width="24" height="24" fill="white" transform="translate(0.0678711 0.135254)"/>
</clipPath>
</defs>
</svg>
