<svg width="25" height="25" viewBox="0 0 25 25" fill="none" xmlns="http://www.w3.org/2000/svg">
<g clip-path="url(#clip0_384_725)">
<path d="M3.06787 12.1353C3.06787 13.3172 3.30066 14.4875 3.75296 15.5794C4.20525 16.6713 4.86818 17.6635 5.70391 18.4992C6.53964 19.3349 7.53179 19.9979 8.62372 20.4502C9.71565 20.9025 10.886 21.1353 12.0679 21.1353C13.2498 21.1353 14.4201 20.9025 15.512 20.4502C16.604 19.9979 17.5961 19.3349 18.4318 18.4992C19.2676 17.6635 19.9305 16.6713 20.3828 15.5794C20.8351 14.4875 21.0679 13.3172 21.0679 12.1353C21.0679 9.74831 20.1197 7.45912 18.4318 5.77129C16.744 4.08347 14.4548 3.13525 12.0679 3.13525C9.68092 3.13525 7.39174 4.08347 5.70391 5.77129C4.01608 7.45912 3.06787 9.74831 3.06787 12.1353Z" stroke="black" stroke-width="2" stroke-linecap="round" stroke-linejoin="round"/>
<path d="M12.0679 16.1353V16.1453" stroke="black" stroke-width="2" stroke-linecap="round" stroke-linejoin="round"/>
<path d="M12.0679 13.1353C12.5176 13.1366 12.9547 12.9863 13.3085 12.7087C13.6624 12.4311 13.9123 12.0423 14.0179 11.6051C14.1236 11.1679 14.0788 10.7079 13.8908 10.2993C13.7028 9.89074 13.3826 9.55745 12.9819 9.35326C12.584 9.14947 12.129 9.08629 11.6907 9.17398C11.2524 9.26168 10.8567 9.49509 10.5679 9.83626" stroke="black" stroke-width="2" stroke-linecap="round" stroke-linejoin="round"/>
</g>
<defs>
<clipPath id="clip0_384_725">
<rect width="24" height="24" fill="white" transform="translate(0.0678711 0.135254)"/>
</clipPath>
</defs>
</svg>
