<svg width="25" height="25" viewBox="0 0 25 25" fill="none" xmlns="http://www.w3.org/2000/svg">
<g clip-path="url(#clip0_247_266)">
<path d="M5.06787 13.209C5.06787 12.6786 5.27858 12.1698 5.65366 11.7948C6.02873 11.4197 6.53744 11.209 7.06787 11.209H17.0679C17.5983 11.209 18.107 11.4197 18.4821 11.7948C18.8572 12.1698 19.0679 12.6786 19.0679 13.209V19.209C19.0679 19.7394 18.8572 20.2481 18.4821 20.6232C18.107 20.9983 17.5983 21.209 17.0679 21.209H7.06787C6.53744 21.209 6.02873 20.9983 5.65366 20.6232C5.27858 20.2481 5.06787 19.7394 5.06787 19.209V13.209Z" stroke="black" stroke-width="2" stroke-linecap="round" stroke-linejoin="round"/>
<path d="M8.06787 11.209V7.20898C8.06787 6.14812 8.4893 5.1307 9.23944 4.38056C9.98959 3.63041 11.007 3.20898 12.0679 3.20898C13.1287 3.20898 14.1462 3.63041 14.8963 4.38056C15.6464 5.1307 16.0679 6.14812 16.0679 7.20898V11.209" stroke="black" stroke-width="2" stroke-linecap="round" stroke-linejoin="round"/>
<path d="M15.0679 16.209H15.0779" stroke="black" stroke-width="2" stroke-linecap="round" stroke-linejoin="round"/>
<path d="M12.0776 16.209H12.0876" stroke="black" stroke-width="2" stroke-linecap="round" stroke-linejoin="round"/>
<path d="M9.08789 16.209H9.09789" stroke="black" stroke-width="2" stroke-linecap="round" stroke-linejoin="round"/>
</g>
<defs>
<clipPath id="clip0_247_266">
<rect width="24" height="24" fill="white" transform="translate(0.0678711 0.208984)"/>
</clipPath>
</defs>
</svg>
