<svg width="118" height="144" viewBox="0 0 118 144" fill="none" xmlns="http://www.w3.org/2000/svg">
<g clip-path="url(#clip0_246_170)">
<mask id="mask0_246_170" style="mask-type:luminance" maskUnits="userSpaceOnUse" x="-30" y="-457" width="1129" height="796">
<path d="M-29.4277 -456.204H1098.5V338.387H-29.4277V-456.204Z" fill="white"/>
</mask>
<g mask="url(#mask0_246_170)">
<path d="M86.3467 24.021C86.3467 32.3414 79.7362 39.0867 71.5819 39.0867C63.4277 39.0867 56.8171 32.3414 56.8171 24.021C56.8171 15.7006 63.4277 8.95527 71.5819 8.95527C79.7362 8.95527 86.3467 15.7006 86.3467 24.021Z" fill="white"/>
</g>
<mask id="mask1_246_170" style="mask-type:luminance" maskUnits="userSpaceOnUse" x="-30" y="-457" width="1129" height="796">
<path d="M-29.4277 -456.204H1098.5V338.387H-29.4277V-456.204Z" fill="white"/>
</mask>
<g mask="url(#mask1_246_170)">
<path d="M56.2006 16.0166C56.2006 24.337 49.59 31.0823 41.4358 31.0823C33.2816 31.0823 26.671 24.337 26.671 16.0166C26.671 7.69616 33.2816 0.950878 41.4358 0.950878C49.59 0.950878 56.2006 7.69616 56.2006 16.0166Z" fill="white"/>
</g>
<mask id="mask2_246_170" style="mask-type:luminance" maskUnits="userSpaceOnUse" x="-30" y="-457" width="1129" height="796">
<path d="M-29.4277 -456.204H1098.5V338.387H-29.4277V-456.204Z" fill="white"/>
</mask>
<g mask="url(#mask2_246_170)">
<path d="M117.919 75.3189C117.17 51.705 106.752 35.1884 89.3437 36.5365C77.3296 37.4675 71.8794 50.672 61.7118 50.672C51.5449 50.672 40.0411 31.5336 27.9563 31.0995C10.5085 30.4715 0.754972 47.406 0.945112 71.0314C1.17208 99.3484 12.694 114.232 45.0366 127.795C47.5467 128.848 49.5954 125.5 47.5445 123.686C44.7036 121.534 39.6976 118.626 30.4522 104.069C18.429 85.1385 14.9546 66.2615 26.956 60.5208C40.259 54.1582 47.4768 75.6785 61.0414 75.1578C74.6864 74.6341 78.7785 53.8415 93.115 60.5246C110.394 68.5797 94.0724 101.501 83.7109 113.416C70.2899 128.85 71.1594 128.184 58.0382 139.612C55.8791 141.493 58.1352 144.958 60.6784 143.671C94.5534 126.538 118.805 103.266 117.919 75.3189Z" fill="white"/>
</g>
</g>
<defs>
<clipPath id="clip0_246_170">
<rect width="117" height="143" fill="white" transform="translate(0.942383 0.950928)"/>
</clipPath>
</defs>
</svg>
