<svg width="157" height="186" viewBox="0 0 157 186" fill="none" xmlns="http://www.w3.org/2000/svg">
<g clip-path="url(#clip0_248_453)">
<mask id="mask0_248_453" style="mask-type:luminance" maskUnits="userSpaceOnUse" x="-11" y="-457" width="1129" height="795">
<path d="M-10.4382 -456.701H1117.49V337.891H-10.4382V-456.701Z" fill="white"/>
</mask>
<g mask="url(#mask0_248_453)">
<path d="M105.336 23.5247C105.336 31.8451 98.7257 38.5904 90.5714 38.5904C82.4172 38.5904 75.8066 31.8451 75.8066 23.5247C75.8066 15.2043 82.4172 8.459 90.5714 8.459C98.7257 8.459 105.336 15.2043 105.336 23.5247Z" fill="white"/>
</g>
<mask id="mask1_248_453" style="mask-type:luminance" maskUnits="userSpaceOnUse" x="-11" y="-457" width="1129" height="795">
<path d="M-10.4382 -456.701H1117.49V337.891H-10.4382V-456.701Z" fill="white"/>
</mask>
<g mask="url(#mask1_248_453)">
<path d="M75.19 15.5203C75.19 23.8407 68.5794 30.586 60.4252 30.586C52.271 30.586 45.6604 23.8407 45.6604 15.5203C45.6604 7.19989 52.271 0.454601 60.4252 0.454601C68.5794 0.454601 75.19 7.19989 75.19 15.5203Z" fill="white"/>
</g>
<mask id="mask2_248_453" style="mask-type:luminance" maskUnits="userSpaceOnUse" x="-11" y="-457" width="1129" height="795">
<path d="M-10.4382 -456.701H1117.49V337.891H-10.4382V-456.701Z" fill="white"/>
</mask>
<g mask="url(#mask2_248_453)">
<path d="M136.908 74.8226C136.16 51.2087 125.741 34.6921 108.333 36.0403C96.3191 36.9712 90.8689 50.1758 80.7013 50.1758C70.5344 50.1758 59.0306 31.0373 46.9458 30.6032C29.498 29.9752 19.7445 46.9097 19.9346 70.5351C20.1616 98.8521 31.6835 113.735 64.0261 127.299C66.5362 128.352 68.5849 125.004 66.534 123.19C63.6931 121.037 58.6871 118.13 49.4417 103.573C37.4185 84.6422 33.9441 65.7652 45.9455 60.0245C59.2485 53.6619 66.4663 75.1823 80.0309 74.6616C93.6759 74.1378 97.7681 53.3452 112.104 60.0284C129.384 68.0834 113.062 101.005 102.7 112.92C89.2794 128.354 90.1489 127.688 77.0278 139.116C74.8686 140.996 77.1247 144.462 79.6679 143.175C113.543 126.042 137.794 102.77 136.908 74.8226Z" fill="white"/>
</g>
</g>
<path d="M46.9816 136.388C47.6497 136.388 48.2134 136.618 48.6727 137.077C49.132 137.537 49.3617 138.121 49.3617 138.831V182.863C49.3617 183.531 49.132 184.116 48.6727 184.617C48.2134 185.076 47.6497 185.306 46.9816 185.306C46.2717 185.306 45.6662 185.076 45.1652 184.617C44.7059 184.116 44.4762 183.531 44.4762 182.863V147.412L27.0638 182.988C26.5627 183.782 25.8528 184.178 24.9342 184.178C23.8903 184.178 23.1387 183.677 22.6794 182.675L5.32959 147.976V182.863C5.32959 183.531 5.09993 184.116 4.64061 184.617C4.18129 185.076 3.5967 185.306 2.88684 185.306C2.21874 185.306 1.63415 185.076 1.13307 184.617C0.673752 184.116 0.444092 183.531 0.444092 182.863V138.831C0.444092 138.121 0.673752 137.537 1.13307 137.077C1.63415 136.618 2.21874 136.388 2.88684 136.388C3.84724 136.388 4.57797 136.806 5.07905 137.641L25.1221 177.477L44.7894 137.641C45.2904 136.806 46.0212 136.388 46.9816 136.388Z" fill="white"/>
<path d="M68.3459 150.732C71.4359 150.732 74.171 151.462 76.5511 152.924C78.9312 154.343 80.7685 156.327 82.0629 158.874C83.3991 161.421 84.0672 164.323 84.0672 167.58C84.0672 168.248 83.8584 168.791 83.4409 169.209C83.0233 169.585 82.4805 169.772 81.8124 169.772H56.508C56.842 173.196 58.1783 175.973 60.5166 178.103C62.855 180.232 65.7779 181.297 69.2854 181.297C70.7887 181.297 72.2919 181.047 73.7951 180.546C75.3401 180.003 76.5719 179.335 77.4906 178.541C78.0334 178.124 78.5971 177.915 79.1817 177.915C79.641 177.915 80.1004 178.082 80.5597 178.416C81.1025 178.917 81.3739 179.481 81.3739 180.107C81.3739 180.65 81.1443 181.13 80.6849 181.548C79.307 182.717 77.5532 183.698 75.4236 184.492C73.2941 185.243 71.248 185.619 69.2854 185.619C65.9449 185.619 62.9594 184.888 60.3287 183.427C57.6981 181.924 55.6311 179.857 54.1279 177.226C52.6664 174.554 51.9357 171.547 51.9357 168.207C51.9357 164.824 52.6247 161.818 54.0026 159.187C55.4223 156.515 57.364 154.448 59.8276 152.986C62.333 151.483 65.1724 150.732 68.3459 150.732ZM68.3459 155.053C65.1724 155.053 62.5418 156.035 60.454 157.997C58.3662 159.96 57.0926 162.549 56.6333 165.764H79.5575C79.2235 162.549 78.0543 159.96 76.05 157.997C74.0457 156.035 71.4777 155.053 68.3459 155.053Z" fill="white"/>
<path d="M121.687 152.861C121.729 152.986 121.75 153.174 121.75 153.425V168.144C121.75 171.401 120.977 174.366 119.432 177.038C117.929 179.71 115.841 181.819 113.169 183.364C110.538 184.867 107.594 185.619 104.337 185.619C101.08 185.619 98.1154 184.867 95.443 183.364C92.8123 181.819 90.7245 179.71 89.1795 177.038C87.6763 174.366 86.9247 171.401 86.9247 168.144C86.9247 164.887 87.6554 161.943 89.1169 159.312C90.6201 156.64 92.6453 154.552 95.1925 153.049C97.7813 151.504 100.663 150.732 103.836 150.732C106.55 150.732 109.035 151.316 111.29 152.485C113.544 153.613 115.403 155.179 116.864 157.183V138.831C116.864 138.121 117.094 137.537 117.553 137.077C118.012 136.618 118.597 136.388 119.307 136.388C120.017 136.388 120.58 136.618 120.998 137.077C121.457 137.537 121.687 138.121 121.687 138.831V152.861ZM104.337 181.235C106.717 181.235 108.868 180.671 110.788 179.543C112.709 178.374 114.212 176.808 115.298 174.846C116.426 172.842 116.989 170.608 116.989 168.144C116.989 167.434 116.968 166.912 116.927 166.578C116.885 166.495 116.864 166.39 116.864 166.265C116.446 163.008 115.068 160.336 112.73 158.248C110.434 156.16 107.636 155.116 104.337 155.116C101.957 155.116 99.7857 155.68 97.8231 156.807C95.9023 157.935 94.3782 159.5 93.2508 161.505C92.1651 163.467 91.6223 165.68 91.6223 168.144C91.6223 170.608 92.1651 172.842 93.2508 174.846C94.3782 176.808 95.9023 178.374 97.8231 179.543C99.7857 180.671 101.957 181.235 104.337 181.235Z" fill="white"/>
<path d="M128.681 185.306C127.971 185.306 127.387 185.076 126.927 184.617C126.468 184.158 126.238 183.573 126.238 182.863V153.487C126.238 152.778 126.468 152.193 126.927 151.734C127.387 151.274 127.971 151.045 128.681 151.045C129.391 151.045 129.955 151.274 130.372 151.734C130.832 152.193 131.061 152.778 131.061 153.487V182.863C131.061 183.573 130.832 184.158 130.372 184.617C129.955 185.076 129.391 185.306 128.681 185.306ZM128.619 144.531C127.658 144.531 126.844 144.197 126.176 143.529C125.55 142.86 125.236 142.046 125.236 141.086C125.236 140.084 125.57 139.269 126.238 138.643C126.907 138.017 127.721 137.704 128.681 137.704C129.6 137.704 130.393 138.017 131.061 138.643C131.729 139.269 132.064 140.084 132.064 141.086C132.064 142.046 131.729 142.86 131.061 143.529C130.393 144.197 129.579 144.531 128.619 144.531Z" fill="white"/>
<path d="M154.165 180.483C154.833 180.483 155.376 180.713 155.794 181.172C156.211 181.631 156.42 182.216 156.42 182.926C156.42 183.594 156.169 184.158 155.668 184.617C155.167 185.076 154.541 185.306 153.789 185.306H152.474C150.261 185.306 148.277 184.784 146.524 183.74C144.77 182.654 143.392 181.214 142.39 179.418C141.429 177.581 140.949 175.514 140.949 173.217V156.494H136.878C136.21 156.494 135.667 156.306 135.249 155.93C134.874 155.513 134.686 155.012 134.686 154.427C134.686 153.801 134.874 153.3 135.249 152.924C135.667 152.506 136.21 152.297 136.878 152.297H140.949V142.589C140.949 141.879 141.158 141.295 141.575 140.835C142.035 140.376 142.619 140.146 143.329 140.146C144.039 140.146 144.624 140.376 145.083 140.835C145.542 141.295 145.772 141.879 145.772 142.589V152.297H152.85C153.518 152.297 154.04 152.506 154.416 152.924C154.833 153.3 155.042 153.801 155.042 154.427C155.042 155.012 154.833 155.513 154.416 155.93C154.04 156.306 153.518 156.494 152.85 156.494H145.772V173.217C145.772 175.347 146.398 177.101 147.651 178.479C148.904 179.815 150.511 180.483 152.474 180.483H154.165Z" fill="white"/>
<defs>
<clipPath id="clip0_248_453">
<rect width="117" height="143" fill="white" transform="translate(19.9319 0.454651)"/>
</clipPath>
</defs>
</svg>
