<svg width="162" height="198" viewBox="0 0 162 198" fill="none" xmlns="http://www.w3.org/2000/svg">
<path d="M51.08 137.098C51.72 137.098 52.26 137.318 52.7 137.758C53.14 138.198 53.36 138.758 53.36 139.438V181.618C53.36 182.258 53.14 182.818 52.7 183.298C52.26 183.738 51.72 183.958 51.08 183.958C50.4 183.958 49.82 183.738 49.34 183.298C48.9 182.818 48.68 182.258 48.68 181.618V147.658L32 181.738C31.52 182.498 30.84 182.878 29.96 182.878C28.96 182.878 28.24 182.398 27.8 181.438L11.18 148.198V181.618C11.18 182.258 10.96 182.818 10.52 183.298C10.08 183.738 9.52 183.958 8.84 183.958C8.2 183.958 7.64 183.738 7.16 183.298C6.72 182.818 6.5 182.258 6.5 181.618V139.438C6.5 138.758 6.72 138.198 7.16 137.758C7.64 137.318 8.2 137.098 8.84 137.098C9.76 137.098 10.46 137.498 10.94 138.298L30.14 176.458L48.98 138.298C49.46 137.498 50.16 137.098 51.08 137.098ZM75.1667 150.838C78.1267 150.838 80.7467 151.538 83.0267 152.938C85.3067 154.298 87.0667 156.198 88.3067 158.638C89.5867 161.078 90.2267 163.858 90.2267 166.978C90.2267 167.618 90.0267 168.138 89.6267 168.538C89.2267 168.898 88.7067 169.078 88.0667 169.078H63.8267C64.1467 172.358 65.4267 175.018 67.6667 177.058C69.9067 179.098 72.7067 180.118 76.0667 180.118C77.5067 180.118 78.9467 179.878 80.3867 179.398C81.8667 178.878 83.0467 178.238 83.9267 177.478C84.4467 177.078 84.9867 176.878 85.5467 176.878C85.9867 176.878 86.4267 177.038 86.8667 177.358C87.3867 177.838 87.6467 178.378 87.6467 178.978C87.6467 179.498 87.4267 179.958 86.9867 180.358C85.6667 181.478 83.9867 182.418 81.9467 183.178C79.9067 183.898 77.9467 184.258 76.0667 184.258C72.8667 184.258 70.0067 183.558 67.4867 182.158C64.9667 180.718 62.9867 178.738 61.5467 176.218C60.1467 173.658 59.4467 170.778 59.4467 167.578C59.4467 164.338 60.1067 161.458 61.4267 158.938C62.7867 156.378 64.6467 154.398 67.0067 152.998C69.4067 151.558 72.1267 150.838 75.1667 150.838ZM75.1667 154.978C72.1267 154.978 69.6067 155.918 67.6067 157.798C65.6067 159.678 64.3867 162.158 63.9467 165.238H85.9067C85.5867 162.158 84.4667 159.678 82.5467 157.798C80.6267 155.918 78.1667 154.978 75.1667 154.978ZM124.83 152.878C124.87 152.998 124.89 153.178 124.89 153.418V167.518C124.89 170.638 124.15 173.478 122.67 176.038C121.23 178.598 119.23 180.618 116.67 182.098C114.15 183.538 111.33 184.258 108.21 184.258C105.09 184.258 102.25 183.538 99.6903 182.098C97.1703 180.618 95.1703 178.598 93.6903 176.038C92.2503 173.478 91.5303 170.638 91.5303 167.518C91.5303 164.398 92.2303 161.578 93.6303 159.058C95.0703 156.498 97.0103 154.498 99.4503 153.058C101.93 151.578 104.69 150.838 107.73 150.838C110.33 150.838 112.71 151.398 114.87 152.518C117.03 153.598 118.81 155.098 120.21 157.018V139.438C120.21 138.758 120.43 138.198 120.87 137.758C121.31 137.318 121.87 137.098 122.55 137.098C123.23 137.098 123.77 137.318 124.17 137.758C124.61 138.198 124.83 138.758 124.83 139.438V152.878ZM108.21 180.058C110.49 180.058 112.55 179.518 114.39 178.438C116.23 177.318 117.67 175.818 118.71 173.938C119.79 172.018 120.33 169.878 120.33 167.518C120.33 166.838 120.31 166.338 120.27 166.018C120.23 165.938 120.21 165.838 120.21 165.718C119.81 162.598 118.49 160.038 116.25 158.038C114.05 156.038 111.37 155.038 108.21 155.038C105.93 155.038 103.85 155.578 101.97 156.658C100.13 157.738 98.6703 159.238 97.5903 161.158C96.5503 163.038 96.0303 165.158 96.0303 167.518C96.0303 169.878 96.5503 172.018 97.5903 173.938C98.6703 175.818 100.13 177.318 101.97 178.438C103.85 179.518 105.93 180.058 108.21 180.058ZM135.032 183.958C134.392 183.958 133.832 183.738 133.352 183.298C132.912 182.818 132.692 182.258 132.692 181.618V139.438C132.692 138.758 132.912 138.198 133.352 137.758C133.832 137.318 134.392 137.098 135.032 137.098C135.712 137.098 136.272 137.318 136.712 137.758C137.152 138.198 137.372 138.758 137.372 139.438V181.618C137.372 182.258 137.152 182.818 136.712 183.298C136.272 183.738 135.712 183.958 135.032 183.958ZM159.651 179.338C160.291 179.338 160.811 179.558 161.211 179.998C161.611 180.438 161.811 180.998 161.811 181.678C161.811 182.318 161.571 182.858 161.091 183.298C160.611 183.738 160.011 183.958 159.291 183.958H158.031C155.911 183.958 154.011 183.458 152.331 182.458C150.651 181.418 149.331 180.038 148.371 178.318C147.451 176.558 146.991 174.578 146.991 172.378V156.358H143.091C142.451 156.358 141.931 156.178 141.531 155.818C141.171 155.418 140.991 154.938 140.991 154.378C140.991 153.778 141.171 153.298 141.531 152.938C141.931 152.538 142.451 152.338 143.091 152.338H146.991V143.038C146.991 142.358 147.191 141.798 147.591 141.358C148.031 140.918 148.591 140.698 149.271 140.698C149.951 140.698 150.511 140.918 150.951 141.358C151.391 141.798 151.611 142.358 151.611 143.038V152.338H158.391C159.031 152.338 159.531 152.538 159.891 152.938C160.291 153.298 160.491 153.778 160.491 154.378C160.491 154.938 160.291 155.418 159.891 155.818C159.531 156.178 159.031 156.358 158.391 156.358H151.611V172.378C151.611 174.418 152.211 176.098 153.411 177.418C154.611 178.698 156.151 179.338 158.031 179.338H159.651Z" fill="white"/>
<g clip-path="url(#clip0_384_538)">
<mask id="mask0_384_538" style="mask-type:luminance" maskUnits="userSpaceOnUse" x="-9" y="-458" width="1129" height="796">
<path d="M-8.37012 -457.11H1119.56V337.482H-8.37012V-457.11Z" fill="white"/>
</mask>
<g mask="url(#mask0_384_538)">
<path d="M107.404 23.1155C107.404 31.4359 100.794 38.1812 92.6395 38.1812C84.4853 38.1812 77.8748 31.4359 77.8748 23.1155C77.8748 14.795 84.4853 8.04976 92.6395 8.04976C100.794 8.04976 107.404 14.795 107.404 23.1155Z" fill="white"/>
</g>
<mask id="mask1_384_538" style="mask-type:luminance" maskUnits="userSpaceOnUse" x="-9" y="-458" width="1129" height="796">
<path d="M-8.37012 -457.11H1119.56V337.482H-8.37012V-457.11Z" fill="white"/>
</mask>
<g mask="url(#mask1_384_538)">
<path d="M77.2581 15.1111C77.2581 23.4315 70.6475 30.1768 62.4933 30.1768C54.3391 30.1768 47.7285 23.4315 47.7285 15.1111C47.7285 6.79065 54.3391 0.0453606 62.4933 0.0453606C70.6475 0.0453606 77.2581 6.79065 77.2581 15.1111Z" fill="white"/>
</g>
<mask id="mask2_384_538" style="mask-type:luminance" maskUnits="userSpaceOnUse" x="-9" y="-458" width="1129" height="796">
<path d="M-8.37012 -457.11H1119.56V337.482H-8.37012V-457.11Z" fill="white"/>
</mask>
<g mask="url(#mask2_384_538)">
<path d="M138.976 74.4133C138.228 50.7995 127.809 34.2829 110.401 35.631C98.3872 36.562 92.937 49.7665 82.7694 49.7665C72.6025 49.7665 61.0987 30.628 49.0139 30.194C31.5661 29.5659 21.8126 46.5005 22.0027 70.1258C22.2297 98.4428 33.7516 113.326 66.0942 126.889C68.6043 127.942 70.653 124.594 68.6021 122.781C65.7613 120.628 60.7552 117.721 51.5098 103.164C39.4866 84.233 36.0122 65.356 48.0136 59.6153C61.3166 53.2526 68.5345 74.773 82.099 74.2523C95.744 73.7285 99.8362 52.9359 114.173 59.6191C131.452 67.6742 115.13 100.595 104.769 112.511C91.3475 127.945 92.217 127.278 79.0959 138.707C76.9367 140.587 79.1928 144.053 81.736 142.766C115.611 125.633 139.863 102.361 138.976 74.4133Z" fill="white"/>
</g>
</g>
<defs>
<clipPath id="clip0_384_538">
<rect width="117" height="143" fill="white" transform="translate(22 0.0454407)"/>
</clipPath>
</defs>
</svg>
