<svg width="33" height="33" viewBox="0 0 33 33" fill="none" xmlns="http://www.w3.org/2000/svg">
<g clip-path="url(#clip0_384_773)">
<path d="M11.1562 9.81911C11.1563 11.2336 11.7182 12.5902 12.7183 13.5903C13.7185 14.5905 15.0751 15.1524 16.4896 15.1524C17.9041 15.1524 19.2606 14.5905 20.2608 13.5903C21.261 12.5902 21.8229 11.2336 21.8229 9.81911C21.8229 8.40462 21.261 7.04807 20.2608 6.04788C19.2606 5.04768 17.9041 4.48578 16.4896 4.48578C15.0751 4.48578 13.7185 5.04768 12.7183 6.04788C11.7182 7.04807 11.1563 8.40462 11.1562 9.81911Z" stroke="#A2A2A2" stroke-width="2" stroke-linecap="round" stroke-linejoin="round"/>
<path d="M8.48975 28.4858V25.8191C8.48975 24.4046 9.05165 23.0481 10.0518 22.0479C11.052 21.0477 12.4086 20.4858 13.8231 20.4858H19.1564C20.5709 20.4858 21.9275 21.0477 22.9276 22.0479C23.9278 23.0481 24.4897 24.4046 24.4897 25.8191V28.4858" stroke="#A2A2A2" stroke-width="2" stroke-linecap="round" stroke-linejoin="round"/>
</g>
<defs>
<clipPath id="clip0_384_773">
<rect x="0.489746" y="0.485779" width="32" height="32" rx="8" fill="white"/>
</clipPath>
</defs>
</svg>
