<svg width="113" height="112" viewBox="0 0 113 112" fill="none" xmlns="http://www.w3.org/2000/svg">
<g clip-path="url(#clip0_384_799)">
<path d="M40.3335 35.7917C40.3335 40.0793 42.0368 44.1914 45.0686 47.2232C48.1004 50.2551 52.2125 51.9583 56.5002 51.9583C60.7878 51.9583 64.8999 50.2551 67.9317 47.2232C70.9636 44.1914 72.6668 40.0793 72.6668 35.7917C72.6668 31.504 70.9636 27.3919 67.9317 24.3601C64.8999 21.3283 60.7878 19.625 56.5002 19.625C52.2125 19.625 48.1004 21.3283 45.0686 24.3601C42.0368 27.3919 40.3335 31.504 40.3335 35.7917Z" stroke="black" stroke-width="5" stroke-linecap="round" stroke-linejoin="round"/>
<path d="M32.25 92.375V84.2917C32.25 80.004 33.9533 75.8919 36.9851 72.8601C40.0169 69.8283 44.129 68.125 48.4167 68.125H64.5833C68.871 68.125 72.9831 69.8283 76.0149 72.8601C79.0467 75.8919 80.75 80.004 80.75 84.2917V92.375" stroke="black" stroke-width="5" stroke-linecap="round" stroke-linejoin="round"/>
<path d="M50.3418 80.2265C50.3418 78.5696 51.6849 77.2265 53.3418 77.2265H59.6582C61.3151 77.2265 62.6582 78.5696 62.6582 80.2265V88.5429C62.6582 89.0952 62.2105 89.5429 61.6582 89.5429H51.3418C50.7895 89.5429 50.3418 89.0952 50.3418 88.5429V80.2265Z" fill="#00259D"/>
</g>
<defs>
<clipPath id="clip0_384_799">
<rect width="111.614" height="111.614" fill="white" transform="translate(0.692871 0.192871)"/>
</clipPath>
</defs>
</svg>
