<svg width="113" height="112" viewBox="0 0 113 112" fill="none" xmlns="http://www.w3.org/2000/svg">
<g clip-path="url(#clip0_80_1347)">
<path d="M44.7944 25.9733C44.7944 29.0568 46.0194 32.0141 48.1998 34.1945C50.3801 36.3749 53.3374 37.5998 56.4209 37.5998C59.5045 37.5998 62.4617 36.3749 64.6421 34.1945C66.8225 32.0141 68.0474 29.0568 68.0474 25.9733C68.0474 22.8898 66.8225 19.9325 64.6421 17.7521C62.4617 15.5718 59.5045 14.3468 56.4209 14.3468C53.3374 14.3468 50.3801 15.5718 48.1998 17.7521C46.0194 19.9325 44.7944 22.8898 44.7944 25.9733Z" stroke="black" stroke-width="5" stroke-linecap="round" stroke-linejoin="round"/>
<path d="M56.4211 99.7689L80.1158 76.0695C81.4635 74.7391 82.5348 73.1553 83.268 71.4093C84.0012 69.6632 84.3818 67.7894 84.3879 65.8957C84.3941 64.0019 84.0256 62.1257 83.3037 60.375C82.5819 58.6242 81.5208 57.0335 80.1818 55.6944C78.8427 54.3553 77.252 53.2943 75.5012 52.5725C73.7505 51.8506 71.8742 51.4821 69.9805 51.4882C68.0868 51.4944 66.213 51.875 64.4669 52.6082C62.7209 53.3414 61.1371 54.4126 59.8067 55.7604L56.4211 59.1413L53.0354 55.7604C51.7051 54.4126 50.1213 53.3414 48.3752 52.6082C46.6292 51.875 44.7553 51.4944 42.8616 51.4882C40.9679 51.4821 39.0916 51.8506 37.3409 52.5725C35.5901 53.2943 33.9994 54.3553 32.6604 55.6944C31.3213 57.0335 30.2603 58.6242 29.5384 60.375C28.8165 62.1257 28.448 64.0019 28.4542 65.8957C28.4603 67.7894 28.8409 69.6632 29.5741 71.4093C30.3073 73.1553 31.3786 74.7391 32.7263 76.0695L56.4211 99.7689Z" stroke="black" stroke-width="5" stroke-linecap="round" stroke-linejoin="round"/>
<path d="M55.7237 81.9761C56.112 82.3541 56.7307 82.3541 57.1189 81.9761L63.5066 75.7569C63.9096 75.3696 64.2299 74.9086 64.4491 74.4004C64.6684 73.8922 64.7822 73.3467 64.784 72.7955C64.7858 72.2443 64.6757 71.6982 64.4598 71.1885C64.244 70.6789 63.9267 70.2159 63.5263 69.8261C63.1259 69.4364 62.6502 69.1275 62.1267 68.9174C61.6032 68.7073 61.0421 68.6 60.4759 68.6018C59.9096 68.6036 59.3493 68.7144 58.8272 68.9278C58.3051 69.1412 57.8315 69.4531 57.4337 69.8453L57.1183 70.1519C56.7302 70.5292 56.1124 70.5292 55.7243 70.1519L55.4089 69.8453C55.0111 69.4531 54.5375 69.1412 54.0154 68.9278C53.4933 68.7144 52.933 68.6036 52.3667 68.6018C51.8005 68.6 51.2394 68.7073 50.7159 68.9174C50.1924 69.1275 49.7168 69.4364 49.3164 69.8261C48.9159 70.2159 48.5987 70.6789 48.3828 71.1885C48.167 71.6982 48.0568 72.2443 48.0586 72.7955C48.0604 73.3467 48.1743 73.8922 48.3935 74.4004C48.6127 74.9086 48.9331 75.3696 49.3361 75.7569L55.7237 81.9761Z" fill="#FF0000"/>
</g>
<defs>
<clipPath id="clip0_80_1347">
<rect width="111.614" height="111.614" fill="white" transform="translate(0.61377 0.39505)"/>
</clipPath>
</defs>
</svg>
