<svg width="25" height="25" viewBox="0 0 25 25" fill="none" xmlns="http://www.w3.org/2000/svg">
<g clip-path="url(#clip0_79_1274)">
<path d="M3.9209 7.5C3.9209 6.96957 4.13161 6.46086 4.50668 6.08579C4.88176 5.71071 5.39047 5.5 5.9209 5.5H19.9209C20.4513 5.5 20.96 5.71071 21.3351 6.08579C21.7102 6.46086 21.9209 6.96957 21.9209 7.5V17.5C21.9209 18.0304 21.7102 18.5391 21.3351 18.9142C20.96 19.2893 20.4513 19.5 19.9209 19.5H5.9209C5.39047 19.5 4.88176 19.2893 4.50668 18.9142C4.13161 18.5391 3.9209 18.0304 3.9209 17.5V7.5Z" stroke="black" stroke-width="2" stroke-linecap="round" stroke-linejoin="round"/>
<path d="M3.9209 7.5L12.9209 13.5L21.9209 7.5" stroke="black" stroke-width="2" stroke-linecap="round" stroke-linejoin="round"/>
</g>
<defs>
<clipPath id="clip0_79_1274">
<rect width="24" height="24" fill="white" transform="translate(0.920898 0.5)"/>
</clipPath>
</defs>
</svg>
