<svg width="25" height="25" viewBox="0 0 25 25" fill="none" xmlns="http://www.w3.org/2000/svg">
<g clip-path="url(#clip0_79_1280)">
<path d="M17.4759 4.34299L21.0779 7.94499C21.3451 8.21215 21.5571 8.52933 21.7017 8.87841C21.8463 9.22749 21.9207 9.60164 21.9207 9.97949C21.9207 10.3573 21.8463 10.7315 21.7017 11.0806C21.5571 11.4297 21.3451 11.7468 21.0779 12.014L18.4349 14.657C18.1677 14.9242 17.8506 15.1361 17.5015 15.2808C17.1524 15.4254 16.7782 15.4998 16.4004 15.4998C16.0225 15.4998 15.6484 15.4254 15.2993 15.2808C14.9502 15.1361 14.6331 14.9242 14.3659 14.657L14.0649 14.356L7.5069 20.914C7.17462 21.2462 6.73597 21.4509 6.2679 21.492L6.0929 21.5H4.9209C4.67597 21.5 4.43956 21.41 4.25653 21.2473C4.07349 21.0845 3.95656 20.8602 3.9279 20.617L3.9209 20.5V19.328C3.92101 18.8584 4.08633 18.4039 4.3879 18.044L4.5069 17.914L4.9209 17.5H6.9209V15.5H8.9209V13.5L11.0649 11.356L10.7639 11.055C10.4967 10.7878 10.2847 10.4707 10.1401 10.1216C9.99552 9.77249 9.92109 9.39834 9.92109 9.02049C9.92109 8.64264 9.99552 8.26849 10.1401 7.91941C10.2847 7.57033 10.4967 7.25315 10.7639 6.98599L13.4069 4.34299C13.6741 4.07579 13.9912 3.86383 14.3403 3.71922C14.6894 3.57461 15.0635 3.50018 15.4414 3.50018C15.8192 3.50018 16.1934 3.57461 16.5425 3.71922C16.8916 3.86383 17.2087 4.07579 17.4759 4.34299Z" stroke="black" stroke-width="2" stroke-linecap="round" stroke-linejoin="round"/>
<path d="M15.9209 9.5H15.9309" stroke="black" stroke-width="2" stroke-linecap="round" stroke-linejoin="round"/>
</g>
<defs>
<clipPath id="clip0_79_1280">
<rect width="24" height="24" fill="white" transform="translate(0.920898 0.5)"/>
</clipPath>
</defs>
</svg>
