<svg width="25" height="25" viewBox="0 0 25 25" fill="none" xmlns="http://www.w3.org/2000/svg">
<g clip-path="url(#clip0_79_1265)">
<path d="M8.9209 7.5C8.9209 8.56087 9.34233 9.57828 10.0925 10.3284C10.8426 11.0786 11.86 11.5 12.9209 11.5C13.9818 11.5 14.9992 11.0786 15.7493 10.3284C16.4995 9.57828 16.9209 8.56087 16.9209 7.5C16.9209 6.43913 16.4995 5.42172 15.7493 4.67157C14.9992 3.92143 13.9818 3.5 12.9209 3.5C11.86 3.5 10.8426 3.92143 10.0925 4.67157C9.34233 5.42172 8.9209 6.43913 8.9209 7.5Z" stroke="black" stroke-width="2" stroke-linecap="round" stroke-linejoin="round"/>
<path d="M6.9209 21.5V19.5C6.9209 18.4391 7.34233 17.4217 8.09247 16.6716C8.84262 15.9214 9.86003 15.5 10.9209 15.5H14.9209C15.9818 15.5 16.9992 15.9214 17.7493 16.6716C18.4995 17.4217 18.9209 18.4391 18.9209 19.5V21.5" stroke="black" stroke-width="2" stroke-linecap="round" stroke-linejoin="round"/>
</g>
<defs>
<clipPath id="clip0_79_1265">
<rect width="24" height="24" fill="white" transform="translate(0.920898 0.5)"/>
</clipPath>
</defs>
</svg>
